<?xml version="1.0" standalone="no"?>
<!DOCTYPE svg PUBLIC "-//W3C//DTD SVG 20010904//EN"
 "http://www.w3.org/TR/2001/REC-SVG-20010904/DTD/svg10.dtd">
<svg version="1.0" xmlns="http://www.w3.org/2000/svg"
 width="260.000000pt" height="260.000000pt" viewBox="0 0 260.000000 260.000000"
 preserveAspectRatio="xMidYMid meet">
<metadata>
Created by potrace 1.11, written by Peter Selinger 2001-2013
</metadata>
<g transform="translate(0.000000,260.000000) scale(0.100000,-0.100000)"
fill="#000000" stroke="none">
<path d="M209 2593 c-5 -49 0 -1473 5 -1481 4 -7 4 -12 -1 -12 -4 0 -7 -145
-5 -322 3 -383 3 -302 0 -546 -2 -120 1 -206 6 -210 15 -9 196 -8 196 1 0 4 7
4 17 -1 9 -5 29 -6 44 -2 17 5 31 4 38 -3 8 -8 11 -8 11 0 0 7 12 8 35 3 20
-4 38 -4 41 1 3 5 13 5 25 -1 12 -7 19 -7 19 -1 0 6 11 6 30 1 17 -5 30 -6 30
-2 0 4 145 7 323 7 177 0 326 2 331 4 5 2 43 5 85 6 42 2 76 3 76 4 0 1 24 4
53 6 29 3 60 9 70 14 9 5 20 9 25 10 4 1 9 2 12 2 3 1 8 2 13 3 24 4 132 52
132 59 0 4 4 5 10 2 5 -3 15 -1 22 5 7 6 41 28 75 49 35 21 60 41 56 44 -3 4
-1 7 7 7 7 0 42 29 78 65 35 36 61 65 57 65 -4 0 3 8 16 18 26 22 33 50 16 72
-9 12 -9 13 3 3 16 -15 44 -18 35 -4 -3 5 1 15 8 23 18 18 42 61 39 71 -1 4 2
7 8 7 5 0 10 9 10 20 0 11 5 20 10 20 6 0 10 8 10 18 0 10 4 22 8 28 17 18 54
134 48 149 -3 9 -2 13 4 10 9 -6 11 1 15 45 0 8 3 20 7 25 26 45 57 435 35
435 -5 0 -5 6 1 13 11 13 11 42 0 53 -4 3 -4 16 0 28 4 11 6 32 5 46 -1 14 -5
48 -8 75 -2 28 -7 66 -11 85 -3 19 -8 51 -10 70 -3 19 -7 46 -10 60 -3 14 -6
30 -8 37 -1 7 -5 15 -8 19 -4 3 -4 12 -1 20 3 8 0 14 -7 14 -6 0 -9 4 -5 10 3
5 -1 25 -9 44 -8 19 -12 37 -8 40 3 3 0 6 -6 6 -7 0 -11 3 -10 8 3 15 -15 62
-24 62 -6 0 -8 7 -4 15 3 8 2 15 -2 15 -4 0 -13 12 -19 28 -15 36 -46 86 -55
90 -5 2 -8 8 -8 13 0 10 -10 24 -42 60 -10 10 -18 22 -18 25 0 4 -15 22 -34
40 -19 18 -31 35 -28 38 3 3 -2 6 -12 6 -9 0 -14 5 -11 10 3 6 3 10 -2 10 -4
0 -20 10 -35 23 -59 49 -124 97 -133 97 -3 0 -23 11 -45 25 -22 14 -40 23 -40
20 0 -3 -10 1 -23 10 -13 8 -27 12 -30 8 -4 -3 -7 0 -7 7 0 7 -3 10 -7 7 -3
-4 -12 -2 -18 3 -7 6 -31 12 -54 15 -22 2 -45 6 -50 9 -5 4 -47 8 -93 11 -45
2 -83 5 -83 5 0 1 -132 2 -292 4 -198 1 -293 -1 -293 -9 0 -7 -3 -7 -8 1 -8
12 -622 19 -623 7z m1436 -53 c3 -5 1 -10 -4 -10 -6 0 -11 5 -11 10 0 6 2 10
4 10 3 0 8 -4 11 -10z m-735 -65 c11 -13 10 -14 -4 -9 -9 3 -16 10 -16 15 0
13 6 11 20 -6z m114 -181 c3 -8 2 -12 -4 -9 -6 3 -10 10 -10 16 0 14 7 11 14
-7z m457 -121 c13 -16 12 -17 -3 -4 -17 13 -22 21 -14 21 2 0 10 -8 17 -17z
m-492 -6 c127 -1 201 -6 201 -12 0 -7 3 -7 8 0 9 13 32 18 32 7 0 -5 7 -9 15
-9 8 0 15 4 15 9 0 5 5 6 11 3 5 -4 36 -9 67 -11 82 -7 101 -9 108 -17 4 -4
20 -7 35 -7 15 0 29 -4 31 -8 2 -4 25 -20 51 -36 89 -51 212 -201 224 -271 2
-10 9 -23 16 -27 6 -4 9 -8 5 -8 -4 0 -1 -15 7 -33 13 -32 26 -99 29 -147 0
-14 6 -29 11 -33 6 -6 6 -10 -3 -14 -6 -2 -9 -9 -6 -15 9 -15 4 -523 -6 -523
-1 0 -3 -8 -5 -17 -2 -10 1 -18 6 -18 6 0 6 -7 0 -17 -5 -10 -11 -34 -14 -54
-2 -19 -10 -45 -16 -57 -7 -12 -10 -26 -7 -30 3 -4 -8 -31 -24 -60 -16 -29
-23 -49 -17 -45 6 3 -3 -11 -19 -33 -16 -21 -32 -41 -37 -42 -4 -2 -5 -8 -1
-13 3 -5 0 -9 -6 -9 -7 0 -10 -7 -7 -14 4 -10 1 -13 -9 -9 -7 3 -14 -1 -14 -8
0 -7 -3 -10 -6 -7 -3 3 -16 -4 -29 -16 -41 -37 -53 -45 -79 -52 -15 -3 -29
-10 -32 -15 -3 -5 -10 -7 -15 -4 -5 4 -9 1 -9 -6 0 -7 -3 -10 -6 -6 -3 3 -18
1 -32 -4 -33 -13 -179 -21 -379 -23 -95 -1 -153 -5 -153 -11 0 -7 -3 -7 -8 0
-4 6 -47 10 -96 10 l-88 0 -2 858 c-1 670 2 856 11 853 7 -3 15 -1 18 5 4 5
10 7 15 4 5 -3 99 -6 209 -8z m1101 -347 c0 -5 -2 -10 -4 -10 -3 0 -8 5 -11
10 -3 6 -1 10 4 10 6 0 11 -4 11 -10z m115 -188 c-3 -3 -11 0 -18 7 -9 10 -8
11 6 5 10 -3 15 -9 12 -12z m-337 -697 c-3 -3 -9 2 -12 12 -6 14 -5 15 5 6 7
-7 10 -15 7 -18z m56 -81 c3 -8 2 -12 -4 -9 -6 3 -10 10 -10 16 0 14 7 11 14
-7z m401 -22 c-3 -3 -11 0 -18 7 -9 10 -8 11 6 5 10 -3 15 -9 12 -12z m-262
-202 c3 -11 1 -20 -4 -20 -5 0 -9 9 -9 20 0 11 2 20 4 20 2 0 6 -9 9 -20z m41
-66 c3 -8 2 -12 -4 -9 -6 3 -10 10 -10 16 0 14 7 11 14 -7z"/>
</g>
</svg>
